<svg width="48" height="48" viewBox="0 0 48 48" fill="none" xmlns="http://www.w3.org/2000/svg">
<circle cx="24" cy="24" r="24" fill="#CAF0F8"/>
<rect x="13.5" y="6.5" width="14" height="19" fill="#CAF0F8" stroke="#0077B6" stroke-linejoin="round"/>
<rect x="21.5" y="13.5" width="14" height="19" fill="#CAF0F8" stroke="#0077B6" stroke-linejoin="round"/>
<rect x="27.25" y="12.25" width="0.5" height="0.5" fill="#CAF0F8" stroke="#0077B6" stroke-width="0.5"/>
<rect x="20.25" y="25.25" width="0.5" height="0.5" fill="#90E0EF" stroke="#0077B6" stroke-width="0.5"/>
<path d="M13.9685 36.192C13.3525 36.192 12.8805 36.38 12.5525 36.756C12.2245 37.132 12.0605 37.664 12.0605 38.352C12.0605 39.048 12.2405 39.584 12.6005 39.96C12.9685 40.336 13.4605 40.524 14.0765 40.524C14.4045 40.524 14.6805 40.48 14.9045 40.392C15.1365 40.304 15.3565 40.204 15.5645 40.092C15.7005 40.204 15.8045 40.34 15.8765 40.5C15.9565 40.652 15.9965 40.832 15.9965 41.04C15.9965 41.368 15.8125 41.648 15.4445 41.88C15.0845 42.104 14.5325 42.216 13.7885 42.216C13.2525 42.216 12.7485 42.14 12.2765 41.988C11.8045 41.836 11.3925 41.604 11.0405 41.292C10.6885 40.972 10.4085 40.572 10.2005 40.092C10.0005 39.604 9.90047 39.024 9.90047 38.352C9.90047 37.728 9.99647 37.18 10.1885 36.708C10.3885 36.228 10.6565 35.824 10.9925 35.496C11.3365 35.168 11.7365 34.92 12.1925 34.752C12.6485 34.584 13.1365 34.5 13.6565 34.5C14.3925 34.5 14.9605 34.62 15.3605 34.86C15.7685 35.1 15.9725 35.408 15.9725 35.784C15.9725 35.992 15.9205 36.172 15.8165 36.324C15.7125 36.476 15.5925 36.596 15.4565 36.684C15.2485 36.548 15.0245 36.432 14.7845 36.336C14.5525 36.24 14.2805 36.192 13.9685 36.192ZM16.6388 38.352C16.6388 37.728 16.7348 37.176 16.9268 36.696C17.1268 36.216 17.3948 35.816 17.7308 35.496C18.0748 35.168 18.4748 34.92 18.9308 34.752C19.3948 34.584 19.8948 34.5 20.4308 34.5C20.9668 34.5 21.4628 34.584 21.9188 34.752C22.3828 34.92 22.7868 35.168 23.1308 35.496C23.4748 35.816 23.7428 36.216 23.9348 36.696C24.1348 37.176 24.2348 37.728 24.2348 38.352C24.2348 38.976 24.1388 39.532 23.9468 40.02C23.7548 40.5 23.4868 40.904 23.1428 41.232C22.8068 41.552 22.4068 41.796 21.9428 41.964C21.4788 42.132 20.9748 42.216 20.4308 42.216C19.8868 42.216 19.3828 42.132 18.9188 41.964C18.4548 41.788 18.0548 41.536 17.7188 41.208C17.3828 40.88 17.1188 40.476 16.9268 39.996C16.7348 39.516 16.6388 38.968 16.6388 38.352ZM18.7988 38.352C18.7988 39.08 18.9468 39.624 19.2428 39.984C19.5388 40.344 19.9348 40.524 20.4308 40.524C20.9348 40.524 21.3348 40.344 21.6308 39.984C21.9268 39.624 22.0748 39.08 22.0748 38.352C22.0748 37.632 21.9268 37.092 21.6308 36.732C21.3428 36.372 20.9468 36.192 20.4428 36.192C19.9468 36.192 19.5468 36.372 19.2428 36.732C18.9468 37.084 18.7988 37.624 18.7988 38.352ZM28.1603 38.1C28.4963 38.1 28.7523 38.024 28.9283 37.872C29.1123 37.712 29.2043 37.472 29.2043 37.152C29.2043 36.848 29.1083 36.616 28.9163 36.456C28.7323 36.288 28.4603 36.204 28.1003 36.204C27.9723 36.204 27.8643 36.208 27.7763 36.216C27.6963 36.216 27.6123 36.224 27.5243 36.24V38.1H28.1603ZM27.5363 41.952C27.4483 41.976 27.3083 42 27.1163 42.024C26.9323 42.048 26.7483 42.06 26.5643 42.06C26.3803 42.06 26.2163 42.044 26.0723 42.012C25.9363 41.988 25.8203 41.94 25.7243 41.868C25.6283 41.796 25.5563 41.696 25.5083 41.568C25.4603 41.44 25.4363 41.272 25.4363 41.064V35.412C25.4363 35.244 25.4803 35.116 25.5683 35.028C25.6643 34.932 25.7923 34.856 25.9523 34.8C26.2243 34.704 26.5323 34.636 26.8763 34.596C27.2283 34.548 27.5803 34.524 27.9323 34.524C29.0363 34.524 29.8803 34.76 30.4643 35.232C31.0483 35.704 31.3403 36.344 31.3403 37.152C31.3403 37.544 31.2763 37.9 31.1483 38.22C31.0283 38.532 30.8443 38.804 30.5963 39.036C30.3563 39.26 30.0483 39.436 29.6723 39.564C29.3043 39.684 28.8763 39.744 28.3883 39.744H27.5363V41.952ZM36.2249 41.952C36.1369 41.976 36.0009 42 35.8169 42.024C35.6329 42.048 35.4529 42.06 35.2769 42.06C34.9089 42.06 34.6329 42 34.4489 41.88C34.2649 41.752 34.1729 41.488 34.1729 41.088V39.468C33.9729 39.172 33.7569 38.844 33.5249 38.484C33.2929 38.124 33.0649 37.756 32.8409 37.38C32.6169 37.004 32.4089 36.636 32.2169 36.276C32.0249 35.908 31.8689 35.572 31.7489 35.268C31.8529 35.124 31.9929 34.992 32.1689 34.872C32.3529 34.752 32.5769 34.692 32.8409 34.692C33.1529 34.692 33.4049 34.756 33.5969 34.884C33.7969 35.012 33.9849 35.252 34.1609 35.604L35.1569 37.608H35.2289C35.3409 37.36 35.4369 37.136 35.5169 36.936C35.6049 36.728 35.6889 36.524 35.7689 36.324C35.8489 36.116 35.9329 35.904 36.0209 35.688C36.1089 35.464 36.2089 35.208 36.3209 34.92C36.4649 34.848 36.6249 34.792 36.8009 34.752C36.9769 34.712 37.1449 34.692 37.3049 34.692C37.5849 34.692 37.8209 34.768 38.0129 34.92C38.2129 35.064 38.3129 35.284 38.3129 35.58C38.3129 35.676 38.2929 35.792 38.2529 35.928C38.2129 36.064 38.1209 36.272 37.9769 36.552C37.8329 36.824 37.6209 37.196 37.3409 37.668C37.0689 38.14 36.6969 38.756 36.2249 39.516V41.952Z" fill="#03045E"/>
<rect x="20" y="25" width="1" height="1" fill="#CAF0F8"/>
<rect x="27" y="12" width="1" height="1" fill="#CAF0F8"/>
</svg>
