<svg width="163" height="164" viewBox="0 0 163 164" fill="none" xmlns="http://www.w3.org/2000/svg">
<path d="M99.433 162.957C97.9197 163.562 96.4063 163.562 94.893 162.957C93.531 162.352 92.5473 161.292 91.942 159.779C91.3367 158.266 91.3367 156.828 91.942 155.466C92.6987 153.953 93.758 152.893 95.12 152.288C113.129 145.327 126.976 135.339 136.661 122.324C146.498 109.309 151.416 94.403 151.416 77.605C151.416 58.537 145.363 42.9497 133.256 30.843C127.203 24.7897 120.09 20.0983 111.918 16.769C103.746 13.4397 95.1957 11.775 86.267 11.775C74.6143 11.775 63.7183 14.499 53.579 19.947C43.4397 25.395 34.8893 32.8103 27.928 42.193C20.9667 51.5757 16.4267 62.2447 14.308 74.2C12.946 82.6747 13.4757 90.6953 15.897 98.262C18.4697 105.829 22.253 112.563 27.247 118.465C32.3923 124.216 38.0673 128.907 44.272 132.539C48.6607 124.67 52.9737 115.892 57.211 106.207C61.5997 96.5217 65.3073 86.7607 68.334 76.924C71.512 66.936 73.328 57.7803 73.782 49.457C73.9333 47.7923 74.6143 46.506 75.825 45.598C77.0357 44.5387 78.3977 44.009 79.911 44.009C81.5757 44.1603 82.862 44.8413 83.77 46.052C84.8293 47.1113 85.2833 48.4733 85.132 50.138C84.678 57.402 83.3917 65.1957 81.273 73.519C79.1543 81.691 76.4303 89.9387 73.101 98.262C69.7717 106.585 66.2153 114.606 62.432 122.324C58.6487 129.891 54.941 136.776 51.309 142.981C50.7037 144.192 49.6443 145.024 48.131 145.478C46.769 145.932 45.407 145.856 44.045 145.251C35.873 141.468 28.3063 135.944 21.345 128.68C14.535 121.416 9.314 112.941 5.682 103.256C2.20133 93.5707 1.369 83.2043 3.185 72.157C4.84967 61.8663 8.179 52.408 13.173 43.782C18.3183 35.0047 24.5987 27.438 32.014 21.082C39.5807 14.5747 47.9797 9.50499 57.211 5.87299C66.4423 2.24099 76.1277 0.424995 86.267 0.424995C96.709 0.424995 106.697 2.39233 116.231 6.32699C125.916 10.1103 134.315 15.5583 141.428 22.671C155.805 37.0477 162.993 55.359 162.993 77.605C162.993 96.8243 157.469 113.925 146.422 128.907C135.375 143.738 119.712 155.088 99.433 162.957Z" fill="#03045E"/>
</svg>
