<svg width="656" height="223" viewBox="0 0 656 223" fill="none" xmlns="http://www.w3.org/2000/svg">
<path d="M13.559 79.451V39.499L164.741 26.333L187.441 37.683V77.635L36.259 90.801L13.559 79.451ZM15.829 41.542V76.954L162.471 64.242V28.83L15.829 41.542ZM0.847001 196.356V156.631L177.453 141.195L200.153 152.545V192.497L23.547 207.706L0.847001 196.356ZM3.117 158.674V193.859L175.183 179.104V143.692L3.117 158.674ZM372.9 206.344L294.131 213.154V219.737L258.719 222.915L236.019 211.565V61.745L226.939 56.978V19.977L405.134 4.314L427.834 15.664V52.665L411.263 54.027L418.981 57.886V208.841L383.569 212.019L372.9 206.344ZM329.089 54.708L331.813 45.628L402.864 39.272V6.81099L229.209 22.02V54.481L298.217 48.579C297.763 49.6383 297.158 51.1517 296.401 53.119C295.796 54.935 295.266 56.4483 294.812 57.659L238.289 62.653V209.068L269.161 206.344V199.761L363.139 191.589V198.172L394.011 195.448V49.033L329.089 54.708ZM353.151 83.764L363.139 82.856V160.717L353.151 161.625V83.764ZM308.205 87.623L324.095 86.261V95.568L308.205 96.93V87.623ZM269.161 91.028L279.149 90.12V167.981L269.161 168.889V91.028ZM308.205 121.9L324.095 120.538V129.845L308.205 131.207V121.9ZM308.205 155.95L324.095 154.588V164.122L308.205 165.484V155.95ZM538.156 211.565V217.467L502.744 220.645L480.044 209.295V134.839L455.301 121.219C455.604 115.166 455.831 108.507 455.982 101.243C456.285 93.979 456.512 86.715 456.663 79.451C456.814 72.187 456.89 65.5283 456.89 59.475C457.041 53.4217 457.117 48.579 457.117 44.947C457.117 41.315 457.117 39.499 457.117 39.499L480.044 39.726V10.897L515.456 7.71899L532.481 16.118L560.856 19.977V3.85999L597.176 0.454991L619.876 11.805V31.554L628.956 30.646L651.656 41.996V81.04L619.876 83.764V92.163L626.232 91.709L648.932 103.059V142.103L619.876 144.6V153.907L633.269 152.772L655.969 164.122V203.166L540.653 212.927L538.156 211.565ZM594.906 158.22V131.207L623.962 128.71V94.206L594.906 96.703V70.371L626.686 67.647V33.143L594.906 35.867V2.95199L563.126 5.90299V38.818L556.316 39.272C556.921 34.8833 557.3 30.9487 557.451 27.468C557.602 23.836 557.678 22.02 557.678 22.02L531.8 18.615C531.8 18.615 531.724 20.1283 531.573 23.155C531.422 26.0303 531.119 29.8137 530.665 34.505C530.362 39.1963 529.833 44.266 529.076 49.714C528.471 55.162 527.714 60.383 526.806 65.377C526.503 62.5017 525.898 59.1723 524.99 55.389C524.233 51.6057 523.477 48.2763 522.72 45.401C521.963 42.5257 521.585 41.088 521.585 41.088L513.186 47.898V10.216L482.314 12.94V206.798L513.186 204.074V64.923C514.245 69.6143 515.229 75.0623 516.137 81.267C517.196 87.4717 518.029 93.071 518.634 98.065L526.352 91.482L537.021 101.924L529.303 102.605V137.109L563.126 134.158V161.171L520.223 164.803V199.08L630.999 189.773V155.269L594.906 158.22ZM475.731 129.845C476.639 121.522 477.244 112.593 477.547 103.059C478.001 93.525 478.228 84.3693 478.228 75.592C478.379 66.6633 478.455 59.248 478.455 53.346V41.996L459.387 41.769C459.387 41.769 459.387 43.5093 459.387 46.99C459.387 50.4707 459.311 55.0863 459.16 60.837C459.16 66.5877 459.084 72.9437 458.933 79.905C458.782 86.8663 458.555 93.8277 458.252 100.789C458.101 107.75 457.874 114.106 457.571 119.857L475.731 129.845ZM544.058 101.243C547.085 93.6763 549.128 87.3203 550.187 82.175C551.398 76.8783 552.003 74.23 552.003 74.23L563.126 73.322V99.654L544.058 101.243Z" fill="#03045E"/>
</svg>
