<svg width="900" height="212" viewBox="0 0 900 212" fill="none" xmlns="http://www.w3.org/2000/svg">
<path d="M113.224 206.074C109.895 206.377 107.852 204.939 107.095 201.761L87.573 129.348C87.119 127.532 87.346 125.943 88.254 124.581C89.4647 123.068 90.9023 122.235 92.567 122.084L203.57 110.961C205.235 110.81 206.824 111.339 208.337 112.55C209.548 113.912 210.002 115.501 209.699 117.317L198.803 193.589C198.198 196.464 196.457 198.053 193.582 198.356L113.224 206.074ZM116.856 194.27L146.593 191.319V165.214L126.844 167.711C125.331 167.862 123.893 167.484 122.531 166.576C121.32 165.517 120.564 164.23 120.261 162.717C120.11 161.052 120.488 159.615 121.396 158.404C122.455 157.193 123.742 156.512 125.255 156.361L146.593 153.637V137.066C146.593 135.401 147.123 134.039 148.182 132.98C149.393 131.769 150.755 131.164 152.268 131.164C153.933 131.164 155.295 131.769 156.354 132.98C157.413 134.039 157.943 135.401 157.943 137.066V152.275L175.195 150.005C176.86 149.854 178.297 150.232 179.508 151.14C180.719 152.048 181.4 153.334 181.551 154.999C181.854 156.512 181.475 157.95 180.416 159.312C179.508 160.523 178.222 161.204 176.557 161.355L157.943 163.852V190.411L188.134 187.46L197.441 122.992L100.285 132.98L116.856 194.27ZM58.29 207.663C56.7767 207.663 55.4147 207.058 54.204 205.847C53.1447 204.788 52.615 203.501 52.615 201.988V97.568C45.9563 105.135 38.995 112.323 31.731 119.133C24.467 125.792 17.2787 131.618 10.166 136.612C8.804 137.52 7.36633 137.823 5.853 137.52C4.33967 137.217 3.129 136.461 2.221 135.25C1.313 134.039 0.934667 132.677 1.086 131.164C1.38867 129.499 2.221 128.213 3.583 127.305C11.755 121.554 19.927 114.744 28.099 106.875C36.271 99.0057 44.0647 90.531 51.48 81.451C58.8953 72.2197 65.4027 62.9883 71.002 53.757L24.694 63.518C23.1807 63.8207 21.743 63.5937 20.381 62.837C19.019 61.929 18.1867 60.7183 17.884 59.205C17.5813 57.5403 17.884 56.1027 18.792 54.892C19.7 53.53 20.9107 52.6977 22.424 52.395L80.99 39.91C83.26 39.456 85.1517 40.2127 86.665 42.18C88.1783 44.1473 88.3297 46.1903 87.119 48.309C83.6383 55.119 79.5523 62.0047 74.861 68.966C70.1697 75.776 65.1757 82.5103 59.879 89.169H60.333L94.837 101.2C96.3503 101.654 97.4097 102.562 98.015 103.924C98.7717 105.286 98.923 106.799 98.469 108.464C97.8637 109.977 96.88 111.112 95.518 111.869C94.156 112.474 92.7183 112.474 91.205 111.869L64.192 102.562V201.988C64.192 203.501 63.5867 204.788 62.376 205.847C61.3167 207.058 59.9547 207.663 58.29 207.663ZM125.255 100.292C122.077 100.595 120.034 99.384 119.126 96.66L105.506 59.659C104.749 57.9943 104.901 56.3297 105.96 54.665C106.868 53.0003 108.23 52.0923 110.046 51.941L177.919 43.088C180.038 42.7853 181.627 43.315 182.686 44.677C184.048 46.039 184.578 47.7037 184.275 49.671L177.465 89.85C177.011 92.574 175.346 94.0873 172.471 94.39L125.255 100.292ZM128.206 88.261L166.796 83.721L171.79 55.346L118.672 62.383L128.206 88.261ZM105.279 28.333C103.766 28.4843 102.328 28.106 100.966 27.198C99.7553 26.1387 99.0743 24.8523 98.923 23.339C98.7717 21.8257 99.15 20.4637 100.058 19.253C101.117 17.891 102.404 17.1343 103.917 16.983L183.14 7.44899C184.805 7.14632 186.242 7.52466 187.453 8.58399C188.664 9.49199 189.345 10.7783 189.496 12.443C189.799 13.9563 189.42 15.3183 188.361 16.529C187.453 17.7397 186.167 18.4963 184.502 18.799L105.279 28.333ZM67.143 31.511C66.0837 32.419 64.7217 32.7973 63.057 32.646C61.5437 32.4947 60.2573 31.8137 59.198 30.603L42.627 9.71899C41.5677 8.50832 41.1137 7.14632 41.265 5.63299C41.5677 3.96833 42.3243 2.68199 43.535 1.77399C44.7457 0.714658 46.1077 0.336325 47.621 0.638988C49.2857 0.790319 50.572 1.47132 51.48 2.68199L68.051 23.339C69.1103 24.5497 69.4887 25.9873 69.186 27.652C69.0347 29.1653 68.3537 30.4517 67.143 31.511ZM278.934 182.92C277.421 183.071 276.134 182.693 275.075 181.785C274.016 180.877 273.335 179.666 273.032 178.153L249.424 54.438C249.273 52.9247 249.651 51.4113 250.559 49.898C251.618 48.6873 252.98 47.9307 254.645 47.628L418.085 35.597C419.901 35.4457 421.49 36.051 422.852 37.413C424.063 38.6237 424.517 40.2127 424.214 42.18L406.054 170.435C405.751 173.462 404.011 175.126 400.833 175.429L278.934 182.92ZM283.247 171.116L334.322 167.938V115.728L297.775 118.906C296.262 119.057 294.9 118.603 293.689 117.544C292.478 116.485 291.797 115.198 291.646 113.685C291.495 112.172 291.949 110.81 293.008 109.599C294.067 108.388 295.354 107.707 296.867 107.556L334.322 104.151V53.303L261.909 58.524L283.247 171.116ZM345.672 167.257L395.385 164.306L411.956 47.628L345.672 52.395V103.243L378.587 100.292C380.252 100.141 381.614 100.595 382.673 101.654C383.884 102.562 384.565 103.848 384.716 105.513C385.019 107.026 384.64 108.388 383.581 109.599C382.522 110.81 381.16 111.491 379.495 111.642L345.672 114.82V167.257ZM577.212 201.761C574.337 202.064 572.369 200.853 571.31 198.129L554.512 152.048C553.907 149.929 554.134 148.265 555.193 147.054C556.101 145.541 557.463 144.633 559.279 144.33L634.416 136.385C636.383 136.082 637.972 136.688 639.183 138.201C640.545 139.563 641.075 141.228 640.772 143.195L631.465 192.454C630.708 195.178 628.968 196.691 626.244 196.994L577.212 201.761ZM506.615 211.522C505.102 211.522 503.74 210.917 502.529 209.706C501.47 208.647 500.94 207.36 500.94 205.847V101.2C494.584 109.523 488.152 117.317 481.645 124.581C475.138 131.845 469.009 138.05 463.258 143.195C462.199 144.254 460.837 144.708 459.172 144.557C457.659 144.406 456.372 143.8 455.313 142.741C454.254 141.53 453.8 140.168 453.951 138.655C454.102 136.99 454.708 135.628 455.767 134.569C462.274 128.818 469.311 121.554 476.878 112.777C484.445 104 491.784 94.617 498.897 84.629C506.161 74.4897 512.366 64.5017 517.511 54.665L477.332 64.88C475.819 65.334 474.381 65.1827 473.019 64.426C471.657 63.518 470.825 62.3073 470.522 60.794C470.068 59.1293 470.219 57.6917 470.976 56.481C471.884 55.119 473.095 54.211 474.608 53.757L526.818 40.591C529.088 39.8343 530.98 40.4397 532.493 42.407C534.158 44.0717 534.46 46.039 533.401 48.309C530.374 55.119 526.667 62.2317 522.278 69.647C518.041 76.911 513.349 84.0993 508.204 91.212C508.507 91.212 508.734 91.2877 508.885 91.439C509.036 91.439 509.188 91.439 509.339 91.439L544.07 109.372C545.432 109.977 546.34 111.112 546.794 112.777C547.248 114.29 547.097 115.728 546.34 117.09C545.735 118.452 544.675 119.36 543.162 119.814C541.649 120.268 540.135 120.192 538.622 119.587L512.29 105.967V205.847C512.29 207.36 511.76 208.647 510.701 209.706C509.642 210.917 508.28 211.522 506.615 211.522ZM532.039 156.815C530.677 157.723 529.239 158.101 527.726 157.95C526.213 157.647 524.926 156.815 523.867 155.453C522.959 154.242 522.656 152.88 522.959 151.367C523.262 149.702 524.018 148.416 525.229 147.508C532.039 142.665 538.925 136.688 545.886 129.575C552.847 122.311 559.43 114.517 565.635 106.194C571.991 97.7193 577.59 89.3203 582.433 80.997C587.276 72.5223 590.908 64.5773 593.329 57.162C593.934 55.6487 594.918 54.5137 596.28 53.757C597.642 53.0003 599.08 52.9247 600.593 53.53C602.106 53.984 603.166 54.9677 603.771 56.481C604.528 57.843 604.679 59.2807 604.225 60.794C603.166 63.8207 602.031 66.696 600.82 69.42C602.636 71.5387 605.284 74.7167 608.765 78.954C612.397 83.1913 616.483 87.8827 621.023 93.028C625.563 98.022 630.027 102.865 634.416 107.556C638.805 112.247 642.664 116.106 645.993 119.133C650.23 122.916 654.619 126.397 659.159 129.575C663.85 132.753 667.785 135.326 670.963 137.293C674.292 139.109 675.957 140.017 675.957 140.017C677.47 140.774 678.378 141.909 678.681 143.422C679.135 144.935 678.984 146.373 678.227 147.735C677.622 149.097 676.487 150.005 674.822 150.459C673.309 150.913 671.871 150.762 670.509 150.005C670.358 149.854 668.542 148.794 665.061 146.827C661.58 144.708 657.419 141.984 652.576 138.655C647.733 135.326 643.042 131.618 638.502 127.532C635.324 124.808 631.768 121.403 627.833 117.317C623.898 113.231 619.888 108.918 615.802 104.378C611.867 99.838 608.084 95.525 604.452 91.439C600.82 87.2017 597.793 83.6453 595.372 80.77C590.529 90.1527 584.627 99.611 577.666 109.145C570.705 118.679 563.289 127.608 555.42 135.931C547.551 144.254 539.757 151.216 532.039 156.815ZM580.617 189.957L621.023 186.098L628.06 148.643L567.905 154.999L580.617 189.957ZM549.064 56.708C547.551 57.3133 546.037 57.4647 544.524 57.162C543.011 56.708 541.876 55.8 541.119 54.438C540.514 53.076 540.362 51.6383 540.665 50.125C541.119 48.4603 542.027 47.3253 543.389 46.72C560.641 37.186 573.58 27.879 582.206 18.799C583.417 17.5883 584.779 16.983 586.292 16.983C587.957 16.8317 589.319 17.3613 590.378 18.572C591.589 19.6313 592.194 20.9177 592.194 22.431C592.194 23.9443 591.664 25.3063 590.605 26.517C581.222 36.505 567.375 46.5687 549.064 56.708ZM648.944 49.217L609.446 25.382C608.084 24.6253 607.252 23.4903 606.949 21.977C606.646 20.3123 606.873 18.799 607.63 17.437C608.387 16.075 609.522 15.2427 611.035 14.94C612.7 14.486 614.137 14.713 615.348 15.621L655.073 39.456C656.284 40.2127 657.04 41.4233 657.343 43.088C657.797 44.6013 657.646 45.9633 656.889 47.174C656.132 48.536 654.922 49.444 653.257 49.898C651.744 50.2007 650.306 49.9737 648.944 49.217ZM512.29 31.284L487.32 12.443C485.958 11.3837 485.126 10.0973 484.823 8.58399C484.672 7.07066 485.126 5.633 486.185 4.271C487.093 3.06033 488.304 2.37933 489.817 2.22799C491.482 1.92532 492.919 2.22799 494.13 3.136L519.327 22.204C520.538 23.112 521.219 24.3983 521.37 26.063C521.673 27.5763 521.37 28.9383 520.462 30.149C519.403 31.3597 518.116 32.1163 516.603 32.419C515.09 32.5703 513.652 32.192 512.29 31.284ZM529.088 91.893C527.575 92.6497 526.061 92.801 524.548 92.347C523.186 91.893 522.127 90.985 521.37 89.623C520.613 88.1097 520.462 86.5963 520.916 85.083C521.37 83.5697 522.278 82.5103 523.64 81.905L544.297 71.236C545.659 70.4793 547.097 70.328 548.61 70.782C550.123 71.236 551.258 72.144 552.015 73.506C552.772 75.0193 552.847 76.5327 552.242 78.046C551.788 79.408 550.88 80.4673 549.518 81.224L529.088 91.893ZM894.558 200.399C885.175 202.972 874.204 203.88 861.643 203.123C849.234 202.366 836.37 200.021 823.053 196.086C798.234 188.671 777.426 182.693 760.628 178.153C743.981 173.462 730.74 169.905 720.903 167.484C711.066 164.911 704.029 163.171 699.792 162.263C695.555 161.355 693.436 160.901 693.436 160.901C691.923 160.447 690.712 159.615 689.804 158.404C688.896 157.193 688.593 155.831 688.896 154.318C689.199 152.653 689.955 151.367 691.166 150.459C692.528 149.551 693.966 149.248 695.479 149.551C699.565 150.308 703.878 151.291 708.418 152.502C713.109 153.561 718.028 154.696 723.173 155.907C730.437 152.578 738.836 147.962 748.37 142.06C758.055 136.158 768.119 129.499 778.561 122.084C789.003 114.517 799.142 106.572 808.979 98.249C818.967 89.9257 827.971 81.678 835.992 73.506L738.609 92.347C737.096 92.6497 735.658 92.347 734.296 91.439C732.934 90.531 732.102 89.3203 731.799 87.807C731.648 86.2937 731.95 84.9317 732.707 83.721C733.615 82.359 734.826 81.5267 736.339 81.224L850.52 58.978C853.093 58.2213 855.136 59.0537 856.649 61.475C857.86 63.8963 857.708 66.0907 856.195 68.058C849.234 76.3813 840.986 84.9317 831.452 93.709C821.918 102.486 811.779 111.037 801.034 119.36C790.441 127.683 779.847 135.401 769.254 142.514C758.661 149.475 748.9 155.377 739.971 160.22C739.971 160.22 742.846 161.052 748.597 162.717C754.499 164.23 763.806 166.803 776.518 170.435C789.23 174.067 805.877 178.985 826.458 185.19C838.565 188.822 850.293 191.016 861.643 191.773C873.144 192.53 883.057 191.773 891.38 189.503C893.045 189.049 894.558 189.2 895.92 189.957C897.282 190.714 898.114 191.849 898.417 193.362C898.871 194.875 898.72 196.313 897.963 197.675C897.206 199.188 896.071 200.096 894.558 200.399ZM814.654 48.763C813.595 49.8223 812.233 50.352 810.568 50.352C809.055 50.2007 807.768 49.5953 806.709 48.536L772.205 12.897C771.146 11.6863 770.616 10.3243 770.616 8.81099C770.767 7.14633 771.373 5.78433 772.432 4.72499C773.643 3.66566 775.005 3.136 776.518 3.136C778.183 3.136 779.545 3.74133 780.604 4.95199L814.881 40.591C816.092 41.6503 816.621 43.0123 816.47 44.677C816.47 46.1903 815.865 47.5523 814.654 48.763Z" fill="#03045E"/>
</svg>
